<svg id="Слой_1" data-name="Слой 1" xmlns="http://www.w3.org/2000/svg" viewBox="0 0 300.74 294.63">
  <defs>
    <style>
      .cls-1, .cls-2 {
        fill: #ffaad4;
        stroke: #000;
        stroke-width: 1.5px;
      }

      .cls-1 {
        fill-rule: evenodd;
      }

      .cls-2 {
        fill-opacity: 0.71;
        stroke-linecap: round;
      }
    </style>
  </defs>
  <title>1512-shirt-304087_1</title>
  <g>
    <path class="cls-1" d="M123,.81a185.54,185.54,0,0,0,54.75,0l9.83,14.73C230,33,254.51,31.07,299.87,58.2c-5.84,21.31-6.94,44.67-24.33,61-14.51-12.36-29-9.75-43.52-13.71V284.73c-54.52,10.77-108.64,13.54-161.91,0V105.44c-12.62,1.53-23.1.41-44,12.19C10.44,103.44,5.55,80.14.85,56.68,49.43,33,73.86,29.74,113.63,16.56L123,.81Z"/>
    <path class="cls-1" d="M122.05,2.84c5.13,16.38,12.51,29.83,23.87,38.09l-13.1,15.75c-14.48-12.06-15.3-25.77-19.19-39.11"/>
    <path class="cls-1" d="M71.51,30.77C75.37,53.21,83.2,81.21,71,104.93"/>
    <path class="cls-1" d="M74.32,44,115.5,28.75"/>
    <path class="cls-1" d="M8.33,54.43c2.68,23.35,13.06,42,24.34,58.63"/>
    <path class="cls-1" d="M70.11,277.62c53.81,8.33,107.63,11.86,161.45,0"/>
    <path class="cls-1" d="M178.2,1.83c-5.13,16.38-12.51,29.82-23.86,38.09l13.1,15.74c14.47-12.06,15.3-25.77,19.19-39.11"/>
    <path class="cls-1" d="M230.61,30.27c-3.85,22.44-11.68,50.44.47,74.16"/>
    <path class="cls-1" d="M227.8,44l-44-16.25"/>
    <path class="cls-1" d="M292.38,55.15c-2.67,23.35-13.05,40.72-24.33,57.4"/>
    <path class="cls-1" d="M128.13,18.58c13.86-4.7,28-4,43.05,0"/>
  </g>
  <path class="cls-2" d="M235.38,49.05h7V96.29h-7Z"/>
</svg>
